<?xml version="1.0"?><svg id="Layer_2" xmlns="http://www.w3.org/2000/svg" viewBox="0 0 213.88 188.5"><defs></defs><g id="Layer_1-2"><path fill="#231F20" d="M103.33,137.09h-.13c-15.84,0-26.1-11.56-27.76-13.38l-25.52-27.32c-3.82-3.99-3.66-10.6.33-14.4,4-3.82,10.33-3.8,14.12.2l25.82,27.01h0s5.63,5.81,13.26,5.73c6.11-.04,12.56-3.74,19.17-10.96L196.19,14.83c3.51-4.24,9.81-4.85,14.08-1.34,4.24,3.52,4.84,9.8,1.34,14.06l-74.04,90.76c-10.65,11.74-22.16,18.78-34.23,18.78Z"></path><path fill="#33A544" d="M166.7,100.14c-1.35,16.62-8.32,32.85-21.01,45.54-13.75,13.74-32.01,21.31-51.44,21.31s-37.7-7.58-51.43-21.31c-13.74-13.74-21.31-32-21.31-51.44s7.57-37.7,21.31-51.43c13.73-13.74,32-21.31,51.42-21.31s37.7,7.57,51.45,21.31c2.42,2.42,4.62,4.98,6.63,7.66l13.94-17.01c-1.71-2.01-3.48-3.97-5.36-5.85C143.1,9.8,119.43,0,94.25,0S45.41,9.8,27.62,27.6C9.81,45.4,0,69.07,0,94.25s9.81,48.85,27.62,66.65c17.8,17.81,41.45,27.61,66.64,27.61s48.85-9.8,66.64-27.61c23.11-23.11,31.66-55.31,25.73-85.17l-19.92,24.42Z"></path></g></svg>